<?xml version="1.0" standalone="no"?>
<!DOCTYPE svg PUBLIC "-//W3C//DTD SVG 20010904//EN"
 "http://www.w3.org/TR/2001/REC-SVG-20010904/DTD/svg10.dtd">
<svg version="1.0" xmlns="http://www.w3.org/2000/svg"
 width="225.000000pt" height="225.000000pt" viewBox="0 0 225.000000 225.000000"
 preserveAspectRatio="xMidYMid meet">

<g transform="translate(0.000000,225.000000) scale(0.100000,-0.100000)"
fill="#000000" stroke="none">
<path d="M1025 2150 c-324 -36 -629 -241 -787 -530 -86 -158 -122 -304 -121
-495 1 -167 27 -286 95 -429 131 -275 379 -480 673 -556 168 -44 389 -37 560
17 276 87 525 313 633 573 60 146 76 230 77 395 0 92 -5 171 -13 205 -52 213
-127 357 -265 505 -64 70 -180 162 -198 157 -5 -1 -9 2 -9 7 0 13 -152 86
-230 110 -130 40 -287 55 -415 41z m223 -515 c69 -16 158 -58 214 -102 38 -29
118 -124 118 -139 0 -7 -77 -54 -210 -130 -84 -47 -220 -130 -220 -134 0 -3
84 -63 186 -135 102 -71 196 -138 208 -147 21 -17 21 -17 -44 -80 -77 -75
-157 -119 -259 -144 -163 -39 -344 17 -472 146 -100 101 -149 221 -149 366 0
140 59 274 163 370 129 119 302 167 465 129z"/>
</g>
</svg>
